<svg width="23" height="23" viewBox="0 0 23 23" fill="none" xmlns="http://www.w3.org/2000/svg">
<path fill-rule="evenodd" clip-rule="evenodd" d="M23 11.5C23 13.0102 22.7025 14.5056 22.1246 15.9009C21.5467 17.2961 20.6996 18.5639 19.6317 19.6317C18.5639 20.6996 17.2961 21.5467 15.9009 22.1246C14.5056 22.7025 13.0102 23 11.5 23C9.9898 23 8.49438 22.7025 7.09914 22.1246C5.7039 21.5467 4.43615 20.6996 3.36827 19.6317C2.3004 18.5639 1.45331 17.2961 0.875385 15.9009C0.297456 14.5056 -2.25038e-08 13.0102 0 11.5C4.54484e-08 8.45001 1.2116 5.52494 3.36827 3.36827C5.52494 1.2116 8.45001 0 11.5 0C14.55 0 17.4751 1.2116 19.6317 3.36827C21.7884 5.52494 23 8.45001 23 11.5ZM12.1389 11.2355V5.07278C12.1389 4.90333 12.0716 4.74083 11.9518 4.62101C11.8319 4.5012 11.6694 4.43389 11.5 4.43389C11.3306 4.43389 11.1681 4.5012 11.0482 4.62101C10.9284 4.74083 10.8611 4.90333 10.8611 5.07278V11.4808C10.8584 11.568 10.8735 11.6548 10.9056 11.7359C10.9377 11.817 10.986 11.8906 11.0477 11.9523L14.6625 15.5659C14.7214 15.6269 14.7919 15.6756 14.8699 15.7091C14.9478 15.7425 15.0317 15.7602 15.1165 15.7609C15.2013 15.7616 15.2855 15.7455 15.364 15.7134C15.4425 15.6812 15.5138 15.6338 15.5738 15.5738C15.6338 15.5138 15.6812 15.4425 15.7134 15.364C15.7455 15.2855 15.7616 15.2013 15.7609 15.1165C15.7602 15.0317 15.7425 14.9478 15.7091 14.8699C15.6756 14.7919 15.6269 14.7214 15.5659 14.6625L12.1389 11.2355Z" fill="white"/>
</svg>
